<svg width="206" height="48" viewBox="0 0 206 48" fill="none" xmlns="http://www.w3.org/2000/svg">
<path d="M132.09 28.92C132.873 28.92 133.465 29.1118 133.865 29.4954C134.265 29.8709 134.465 30.483 134.465 31.3317V35.6043H133.4V31.4052C133.4 30.8747 133.281 30.4789 133.045 30.2177C132.808 29.9565 132.437 29.826 131.931 29.826C131.204 29.826 130.702 30.03 130.425 30.4381C130.147 30.8461 130.008 31.4338 130.008 32.2009V35.6043H128.931V29.0425H129.8L129.96 29.9361H130.021C130.168 29.7076 130.347 29.5199 130.559 29.373C130.78 29.2179 131.021 29.1037 131.282 29.0302C131.543 28.9568 131.812 28.92 132.09 28.92Z" fill="white"/>
<path d="M126.856 32.3111C126.856 32.8579 126.783 33.3435 126.636 33.7679C126.497 34.1842 126.293 34.5392 126.024 34.833C125.763 35.1268 125.44 35.3512 125.057 35.5063C124.681 35.6532 124.261 35.7267 123.796 35.7267C123.363 35.7267 122.963 35.6532 122.596 35.5063C122.229 35.3512 121.911 35.1268 121.641 34.833C121.372 34.5392 121.16 34.1842 121.005 33.7679C120.858 33.3435 120.784 32.8579 120.784 32.3111C120.784 31.5847 120.907 30.9726 121.152 30.4748C121.396 29.9688 121.747 29.5852 122.204 29.324C122.661 29.0547 123.204 28.92 123.833 28.92C124.428 28.92 124.951 29.0547 125.4 29.324C125.857 29.5852 126.212 29.9688 126.465 30.4748C126.726 30.9726 126.856 31.5847 126.856 32.3111ZM121.898 32.3111C121.898 32.8253 121.964 33.2742 122.094 33.6578C122.233 34.0332 122.445 34.3229 122.731 34.5269C123.016 34.731 123.38 34.833 123.82 34.833C124.261 34.833 124.624 34.731 124.91 34.5269C125.196 34.3229 125.404 34.0332 125.534 33.6578C125.673 33.2742 125.742 32.8253 125.742 32.3111C125.742 31.7888 125.673 31.344 125.534 30.9767C125.396 30.6095 125.183 30.3279 124.898 30.132C124.62 29.928 124.257 29.826 123.808 29.826C123.139 29.826 122.653 30.0463 122.351 30.487C122.049 30.9278 121.898 31.5358 121.898 32.3111Z" fill="white"/>
<path d="M118.706 29.0425V35.6042H117.628V29.0425H118.706ZM118.179 26.5818C118.342 26.5818 118.485 26.6389 118.608 26.7532C118.738 26.8593 118.804 27.0307 118.804 27.2673C118.804 27.4959 118.738 27.6673 118.608 27.7815C118.485 27.8958 118.342 27.9529 118.179 27.9529C118 27.9529 117.849 27.8958 117.726 27.7815C117.604 27.6673 117.543 27.4959 117.543 27.2673C117.543 27.0307 117.604 26.8593 117.726 26.7532C117.849 26.6389 118 26.5818 118.179 26.5818Z" fill="white"/>
<path d="M115.029 34.8451C115.192 34.8451 115.359 34.8328 115.531 34.8083C115.702 34.7757 115.841 34.743 115.947 34.7104V35.5306C115.833 35.5877 115.67 35.6326 115.457 35.6653C115.245 35.7061 115.041 35.7265 114.845 35.7265C114.503 35.7265 114.184 35.6694 113.89 35.5551C113.605 35.4327 113.372 35.2246 113.193 34.9308C113.013 34.6369 112.923 34.2248 112.923 33.6943V29.8747H111.993V29.3606L112.936 28.9321L113.364 27.5365H114.001V29.0423H115.898V29.8747H114.001V33.6698C114.001 34.0697 114.094 34.3676 114.282 34.5635C114.478 34.7512 114.727 34.8451 115.029 34.8451Z" fill="white"/>
<path d="M109.221 35.7267C108.641 35.7267 108.123 35.6083 107.666 35.3717C107.217 35.135 106.862 34.7677 106.601 34.2699C106.348 33.772 106.221 33.1354 106.221 32.3601C106.221 31.5521 106.356 30.8951 106.625 30.3891C106.895 29.8831 107.258 29.5117 107.715 29.2751C108.18 29.0384 108.706 28.92 109.294 28.92C109.629 28.92 109.951 28.9568 110.261 29.0302C110.571 29.0955 110.824 29.1771 111.02 29.2751L110.69 30.1687C110.494 30.0953 110.265 30.0259 110.004 29.9606C109.743 29.8953 109.498 29.8627 109.27 29.8627C108.829 29.8627 108.466 29.9565 108.18 30.1443C107.894 30.332 107.682 30.6095 107.543 30.9767C107.405 31.344 107.335 31.801 107.335 32.3478C107.335 32.8702 107.405 33.315 107.543 33.6822C107.682 34.0495 107.89 34.327 108.168 34.5147C108.445 34.7024 108.792 34.7963 109.208 34.7963C109.567 34.7963 109.882 34.7595 110.151 34.6861C110.428 34.6126 110.681 34.5229 110.91 34.4168V35.3717C110.69 35.4859 110.445 35.5716 110.175 35.6287C109.914 35.694 109.596 35.7267 109.221 35.7267Z" fill="white"/>
<path d="M104.138 29.0424V35.6041H103.256L103.097 34.735H103.048C102.91 34.9635 102.73 35.1512 102.51 35.2981C102.289 35.445 102.049 35.5511 101.787 35.6164C101.526 35.6898 101.253 35.7266 100.967 35.7266C100.445 35.7266 100.004 35.645 99.645 35.4817C99.2941 35.3103 99.0288 35.0492 98.8493 34.6982C98.6697 34.3473 98.58 33.8943 98.58 33.3394V29.0424H99.6695V33.2659C99.6695 33.7882 99.7878 34.18 100.025 34.4411C100.261 34.7023 100.628 34.8329 101.126 34.8329C101.616 34.8329 102 34.7431 102.277 34.5636C102.563 34.3759 102.763 34.1065 102.877 33.7556C102.999 33.3965 103.061 32.9639 103.061 32.4579V29.0424H104.138Z" fill="white"/>
<path d="M96.2897 28.92C96.4121 28.92 96.5427 28.9282 96.6814 28.9445C96.8283 28.9527 96.9548 28.969 97.0609 28.9935L96.9263 29.9851C96.8202 29.9606 96.7018 29.9402 96.5712 29.9239C96.4488 29.9076 96.3305 29.8994 96.2162 29.8994C95.9632 29.8994 95.7224 29.9525 95.4939 30.0586C95.2654 30.1647 95.0614 30.3156 94.8818 30.5115C94.7023 30.6992 94.5594 30.9278 94.4533 31.1971C94.3554 31.4664 94.3064 31.7684 94.3064 32.103V35.6043H93.2291V29.0425H94.1106L94.233 30.2422H94.282C94.4207 29.9974 94.588 29.777 94.7839 29.5811C94.9798 29.3771 95.2042 29.2179 95.4572 29.1037C95.7102 28.9813 95.9877 28.92 96.2897 28.92Z" fill="white"/>
<path d="M90.6298 34.8451C90.793 34.8451 90.9604 34.8328 91.1317 34.8083C91.3031 34.7757 91.4419 34.743 91.548 34.7104V35.5306C91.4337 35.5877 91.2705 35.6326 91.0583 35.6653C90.8461 35.7061 90.6421 35.7265 90.4462 35.7265C90.1034 35.7265 89.7851 35.6694 89.4913 35.5551C89.2056 35.4327 88.973 35.2246 88.7935 34.9308C88.6139 34.6369 88.5242 34.2248 88.5242 33.6943V29.8747H87.5938V29.3606L88.5364 28.9321L88.9649 27.5365H89.6015V29.0423H91.499V29.8747H89.6015V33.6698C89.6015 34.0697 89.6953 34.3676 89.883 34.5635C90.0789 34.7512 90.3278 34.8451 90.6298 34.8451Z" fill="white"/>
<path d="M86.4856 33.7924C86.4856 34.2168 86.3795 34.5718 86.1673 34.8575C85.9552 35.1431 85.6532 35.3594 85.2614 35.5063C84.8697 35.6532 84.4045 35.7267 83.8658 35.7267C83.4088 35.7267 83.013 35.6899 82.6783 35.6165C82.3519 35.543 82.0622 35.441 81.8091 35.3104V34.3311C82.0703 34.4617 82.3845 34.5841 82.7518 34.6983C83.1272 34.8044 83.5067 34.8575 83.8903 34.8575C84.4371 34.8575 84.833 34.7718 85.0778 34.6004C85.3226 34.4208 85.4451 34.1842 85.4451 33.8904C85.4451 33.7271 85.4002 33.5802 85.3104 33.4496C85.2206 33.3191 85.0574 33.1885 84.8207 33.0579C84.5922 32.9273 84.2617 32.7804 83.8291 32.6172C83.4047 32.4539 83.0415 32.2907 82.7395 32.1275C82.4376 31.9643 82.205 31.7684 82.0417 31.5399C81.8785 31.3113 81.7969 31.0175 81.7969 30.6584C81.7969 30.1035 82.0213 29.675 82.4702 29.373C82.9273 29.071 83.523 28.92 84.2576 28.92C84.6575 28.92 85.0288 28.9609 85.3716 29.0425C85.7226 29.1159 86.049 29.222 86.351 29.3608L85.9837 30.2177C85.8042 30.1361 85.6124 30.0667 85.4083 30.0096C85.2125 29.9443 85.0125 29.8953 84.8085 29.8627C84.6044 29.8219 84.3963 29.8015 84.1841 29.8015C83.7434 29.8015 83.4047 29.8749 83.168 30.0218C82.9395 30.1606 82.8252 30.3524 82.8252 30.5972C82.8252 30.7768 82.8783 30.9318 82.9844 31.0624C83.0905 31.1848 83.266 31.3073 83.5108 31.4297C83.7638 31.5439 84.0984 31.6827 84.5147 31.8459C84.9309 32.001 85.2859 32.1601 85.5797 32.3234C85.8735 32.4866 86.098 32.6865 86.253 32.9232C86.4081 33.1517 86.4856 33.4415 86.4856 33.7924Z" fill="white"/>
<path d="M77.4365 28.92C78.22 28.92 78.8117 29.1118 79.2116 29.4954C79.6116 29.8709 79.8115 30.483 79.8115 31.3317V35.6043H78.7464V31.4052C78.7464 30.8747 78.6281 30.4789 78.3914 30.2177C78.1547 29.9565 77.7834 29.826 77.2774 29.826C76.551 29.826 76.0491 30.03 75.7716 30.4381C75.4941 30.8461 75.3554 31.4338 75.3554 32.2009V35.6043H74.2781V29.0425H75.1473L75.3064 29.9361H75.3676C75.5145 29.7076 75.6941 29.5199 75.9063 29.373C76.1266 29.2179 76.3674 29.1037 76.6286 29.0302C76.8897 28.9568 77.159 28.92 77.4365 28.92Z" fill="white"/>
<path d="M72.2036 32.3111C72.2036 32.8579 72.1302 33.3435 71.9833 33.7679C71.8445 34.1842 71.6405 34.5392 71.3712 34.833C71.11 35.1268 70.7876 35.3512 70.4041 35.5063C70.0286 35.6532 69.6083 35.7267 69.1431 35.7267C68.7106 35.7267 68.3106 35.6532 67.9434 35.5063C67.5761 35.3512 67.2578 35.1268 66.9885 34.833C66.7192 34.5392 66.507 34.1842 66.3519 33.7679C66.205 33.3435 66.1315 32.8579 66.1315 32.3111C66.1315 31.5847 66.254 30.9726 66.4988 30.4748C66.7437 29.9688 67.0946 29.5852 67.5516 29.324C68.0087 29.0547 68.5514 28.92 69.1798 28.92C69.7756 28.92 70.298 29.0547 70.7468 29.324C71.2039 29.5852 71.5589 29.9688 71.8119 30.4748C72.0731 30.9726 72.2036 31.5847 72.2036 32.3111ZM67.2456 32.3111C67.2456 32.8253 67.3109 33.2742 67.4415 33.6578C67.5802 34.0332 67.7924 34.3229 68.078 34.5269C68.3637 34.731 68.7269 34.833 69.1676 34.833C69.6083 34.833 69.9715 34.731 70.2571 34.5269C70.5428 34.3229 70.7509 34.0332 70.8815 33.6578C71.0202 33.2742 71.0896 32.8253 71.0896 32.3111C71.0896 31.7888 71.0202 31.344 70.8815 30.9767C70.7428 30.6095 70.5306 30.3279 70.2449 30.132C69.9674 29.928 69.6042 29.826 69.1554 29.826C68.4861 29.826 68.0005 30.0463 67.6985 30.487C67.3966 30.9278 67.2456 31.5358 67.2456 32.3111Z" fill="white"/>
<path d="M62.2894 27.708C61.8242 27.708 61.4039 27.7896 61.0285 27.9528C60.6531 28.1079 60.3348 28.3405 60.0736 28.6506C59.8124 28.9526 59.6125 29.3239 59.4738 29.7647C59.335 30.1972 59.2656 30.6869 59.2656 31.2337C59.2656 31.9519 59.3758 32.5763 59.5962 33.1068C59.8247 33.6373 60.1593 34.0453 60.6 34.331C61.0489 34.6166 61.608 34.7594 62.2772 34.7594C62.6608 34.7594 63.024 34.7268 63.3668 34.6615C63.7095 34.5962 64.0442 34.5146 64.3706 34.4167V35.3716C64.0442 35.494 63.7055 35.5838 63.3545 35.6409C63.0117 35.698 62.5996 35.7266 62.1181 35.7266C61.2285 35.7266 60.4858 35.5429 59.89 35.1757C59.2942 34.8084 58.8453 34.2861 58.5433 33.6087C58.2495 32.9313 58.1026 32.1355 58.1026 31.2215C58.1026 30.5604 58.1924 29.9564 58.372 29.4096C58.5597 28.8628 58.829 28.3895 59.1799 27.9895C59.539 27.5896 59.9798 27.2836 60.5021 27.0714C61.0244 26.851 61.6243 26.7408 62.3017 26.7408C62.7506 26.7408 63.1831 26.7857 63.5994 26.8755C64.0156 26.9653 64.3869 27.0918 64.7134 27.255L64.2727 28.1854C64.0033 28.063 63.7014 27.9528 63.3668 27.8549C63.0403 27.7569 62.6812 27.708 62.2894 27.708Z" fill="white"/>
<path d="M200.712 15.9295H201.621C202.628 15.9295 203.132 15.4911 203.132 14.6144C203.132 13.7376 202.628 13.2992 201.621 13.2992H200.712V15.9295ZM200.712 21.6378H197.969V11.0886H202.335C203.519 11.0886 204.424 11.3964 205.049 12.012C205.683 12.6276 206 13.4951 206 14.6144C206 15.7336 205.683 16.6011 205.049 17.2167C204.424 17.8323 203.519 18.1401 202.335 18.1401H200.712V21.6378Z" fill="white"/>
<path d="M186.595 15.8036H187.112C187.653 15.8036 188.068 15.6917 188.358 15.4678C188.647 15.244 188.791 14.9222 188.791 14.5024C188.791 14.0827 188.647 13.7609 188.358 13.5371C188.068 13.3132 187.653 13.2013 187.112 13.2013H186.595V15.8036ZM192.625 21.6378H189.211L186.595 17.5805V21.6378H183.853V11.0886H188.12C188.707 11.0886 189.22 11.1772 189.659 11.3545C190.097 11.5223 190.456 11.7555 190.736 12.054C191.025 12.3525 191.24 12.6976 191.38 13.0893C191.529 13.4811 191.604 13.9008 191.604 14.3485C191.604 15.1507 191.408 15.8036 191.016 16.3073C190.634 16.8016 190.065 17.1374 189.309 17.3146L192.625 21.6378Z" fill="white"/>
<path d="M169.109 16.3632C169.109 16.783 169.188 17.17 169.347 17.5245C169.505 17.8789 169.72 18.1867 169.99 18.4479C170.261 18.7091 170.573 18.9143 170.928 19.0635C171.291 19.2034 171.674 19.2734 172.075 19.2734C172.476 19.2734 172.854 19.2034 173.208 19.0635C173.572 18.9143 173.889 18.7091 174.16 18.4479C174.439 18.1867 174.659 17.8789 174.817 17.5245C174.976 17.17 175.055 16.783 175.055 16.3632C175.055 15.9435 174.976 15.5564 174.817 15.202C174.659 14.8475 174.439 14.5397 174.16 14.2786C173.889 14.0174 173.572 13.8169 173.208 13.6769C172.854 13.5277 172.476 13.4531 172.075 13.4531C171.674 13.4531 171.291 13.5277 170.928 13.6769C170.573 13.8169 170.261 14.0174 169.99 14.2786C169.72 14.5397 169.505 14.8475 169.347 15.202C169.188 15.5564 169.109 15.9435 169.109 16.3632ZM166.241 16.3632C166.241 15.5797 166.385 14.8522 166.674 14.1806C166.964 13.4997 167.365 12.9074 167.878 12.4038C168.391 11.9001 169.002 11.5083 169.71 11.2285C170.429 10.9394 171.217 10.7948 172.075 10.7948C172.924 10.7948 173.707 10.9394 174.425 11.2285C175.144 11.5083 175.759 11.9001 176.272 12.4038C176.795 12.9074 177.2 13.4997 177.489 14.1806C177.779 14.8522 177.923 15.5797 177.923 16.3632C177.923 17.1467 177.779 17.8789 177.489 18.5598C177.2 19.2314 176.795 19.819 176.272 20.3227C175.759 20.8264 175.144 21.2228 174.425 21.5119C173.707 21.7917 172.924 21.9317 172.075 21.9317C171.217 21.9317 170.429 21.7917 169.71 21.5119C169.002 21.2228 168.391 20.8264 167.878 20.3227C167.365 19.819 166.964 19.2314 166.674 18.5598C166.385 17.8789 166.241 17.1467 166.241 16.3632Z" fill="white"/>
<path d="M160.634 14.6143C160 13.8402 159.216 13.4531 158.283 13.4531C157.873 13.4531 157.491 13.5277 157.136 13.6769C156.791 13.8262 156.493 14.0314 156.241 14.2926C155.989 14.5444 155.788 14.8475 155.639 15.202C155.499 15.5564 155.429 15.9388 155.429 16.3492C155.429 16.769 155.499 17.156 155.639 17.5105C155.788 17.8649 155.989 18.1727 156.241 18.4339C156.502 18.6951 156.805 18.9003 157.15 19.0495C157.495 19.1987 157.868 19.2734 158.269 19.2734C159.146 19.2734 159.934 18.9003 160.634 18.1541V21.4L160.354 21.4979C159.934 21.6472 159.543 21.7544 159.179 21.8197C158.815 21.8943 158.456 21.9317 158.102 21.9317C157.374 21.9317 156.674 21.7964 156.003 21.5259C155.341 21.2461 154.753 20.859 154.24 20.3647C153.736 19.861 153.331 19.2687 153.023 18.5878C152.715 17.8976 152.561 17.1467 152.561 16.3352C152.561 15.5238 152.71 14.7822 153.009 14.1107C153.317 13.4298 153.722 12.8468 154.226 12.3618C154.739 11.8674 155.331 11.485 156.003 11.2145C156.674 10.9347 157.379 10.7948 158.116 10.7948C158.535 10.7948 158.946 10.8414 159.347 10.9347C159.757 11.0187 160.186 11.1539 160.634 11.3404V14.6143Z" fill="white"/>
<path d="M132.323 16.5731L128.476 11.0886H131.75L133.708 13.9708L135.653 11.0886H138.927L135.065 16.5731V21.6378H132.323V16.5731Z" fill="white"/>
<path d="M123.602 13.4111H120.342V15.174H123.42V17.4965H120.342V19.3153H123.602V21.6378H117.6V11.0886H123.602V13.4111Z" fill="white"/>
<path d="M108.699 11.0886V19.3153H111.986V21.6378H105.956V11.0886H108.699Z" fill="white"/>
<path d="M98.2868 13.4111V21.6378H95.5446V13.4111H93.2921V11.0886H100.539V13.4111H98.2868Z" fill="white"/>
<path d="M79.651 16.3632C79.651 16.783 79.7302 17.17 79.8888 17.5245C80.0474 17.8789 80.2619 18.1867 80.5324 18.4479C80.8029 18.7091 81.1153 18.9143 81.4698 19.0635C81.8335 19.2034 82.216 19.2734 82.617 19.2734C83.0181 19.2734 83.3959 19.2034 83.7503 19.0635C84.1141 18.9143 84.4312 18.7091 84.7017 18.4479C84.9815 18.1867 85.2007 17.8789 85.3593 17.5245C85.5178 17.17 85.5971 16.783 85.5971 16.3632C85.5971 15.9435 85.5178 15.5564 85.3593 15.202C85.2007 14.8475 84.9815 14.5397 84.7017 14.2786C84.4312 14.0174 84.1141 13.8169 83.7503 13.6769C83.3959 13.5277 83.0181 13.4531 82.617 13.4531C82.216 13.4531 81.8335 13.5277 81.4698 13.6769C81.1153 13.8169 80.8029 14.0174 80.5324 14.2786C80.2619 14.5397 80.0474 14.8475 79.8888 15.202C79.7302 15.5564 79.651 15.9435 79.651 16.3632ZM76.7828 16.3632C76.7828 15.5797 76.9274 14.8522 77.2165 14.1806C77.5057 13.4997 77.9067 12.9074 78.4197 12.4038C78.9327 11.9001 79.5437 11.5083 80.2526 11.2285C80.9708 10.9394 81.7589 10.7948 82.617 10.7948C83.4658 10.7948 84.2493 10.9394 84.9675 11.2285C85.6857 11.5083 86.3013 11.9001 86.8144 12.4038C87.3367 12.9074 87.7424 13.4997 88.0316 14.1806C88.3207 14.8522 88.4653 15.5797 88.4653 16.3632C88.4653 17.1467 88.3207 17.8789 88.0316 18.5598C87.7424 19.2314 87.3367 19.819 86.8144 20.3227C86.3013 20.8264 85.6857 21.2228 84.9675 21.5119C84.2493 21.7917 83.4658 21.9317 82.617 21.9317C81.7589 21.9317 80.9708 21.7917 80.2526 21.5119C79.5437 21.2228 78.9327 20.8264 78.4197 20.3227C77.9067 19.819 77.5057 19.2314 77.2165 18.5598C76.9274 17.8789 76.7828 17.1467 76.7828 16.3632Z" fill="white"/>
<path d="M58.1025 21.6378L59.8934 11.0886H62.6076L64.7203 16.713L66.8189 11.0886H69.5332L71.324 21.6378H68.5958L67.6864 15.5657L65.196 21.6378H64.1047L61.7402 15.5657L60.8308 21.6378H58.1025Z" fill="white"/>
<path d="M24.0058 38.3855L18.8403 33.2333V13.7699L23.7433 8.87946L29.0102 14.1298L33.4599 9.69155L23.7433 0L12.5475 11.17V35.8332L24.0058 47.2619L31.2708 40.0126V31.1451L31.2678 31.1391L24.0058 38.3855Z" fill="white" fill-opacity="0.7"/>
<path d="M23.4237 23.6086L0 0V42.4674L6.80111 36.4028V17.6394L23.4237 34.3961L39.86 17.8302V36.5936L46.6581 42.6612V0.190825L23.4237 23.6086Z" fill="white"/>
</svg>
