<svg width="206" height="48" viewBox="0 0 206 48" fill="none" xmlns="http://www.w3.org/2000/svg">
<path d="M132.09 28.9199C132.873 28.9199 133.465 29.1117 133.865 29.4953C134.265 29.8707 134.465 30.4829 134.465 31.3316V35.6041H133.4V31.4051C133.4 30.8746 133.281 30.4788 133.045 30.2176C132.808 29.9564 132.437 29.8259 131.931 29.8259C131.204 29.8259 130.702 30.0299 130.425 30.438C130.147 30.846 130.008 31.4337 130.008 32.2008V35.6041H128.931V29.0424H129.8L129.96 29.936H130.021C130.168 29.7075 130.347 29.5198 130.559 29.3729C130.78 29.2178 131.021 29.1036 131.282 29.0301C131.543 28.9567 131.812 28.9199 132.09 28.9199Z" fill="black"/>
<path d="M126.856 32.311C126.856 32.8578 126.783 33.3434 126.636 33.7678C126.497 34.1841 126.293 34.5391 126.024 34.8329C125.763 35.1267 125.44 35.3511 125.057 35.5062C124.681 35.6531 124.261 35.7266 123.796 35.7266C123.363 35.7266 122.963 35.6531 122.596 35.5062C122.229 35.3511 121.911 35.1267 121.641 34.8329C121.372 34.5391 121.16 34.1841 121.005 33.7678C120.858 33.3434 120.784 32.8578 120.784 32.311C120.784 31.5846 120.907 30.9725 121.152 30.4747C121.396 29.9687 121.747 29.5851 122.204 29.3239C122.661 29.0546 123.204 28.9199 123.833 28.9199C124.428 28.9199 124.951 29.0546 125.4 29.3239C125.857 29.5851 126.212 29.9687 126.465 30.4747C126.726 30.9725 126.856 31.5846 126.856 32.311ZM121.898 32.311C121.898 32.8252 121.964 33.2741 122.094 33.6576C122.233 34.0331 122.445 34.3228 122.731 34.5268C123.016 34.7309 123.38 34.8329 123.82 34.8329C124.261 34.8329 124.624 34.7309 124.91 34.5268C125.196 34.3228 125.404 34.0331 125.534 33.6576C125.673 33.2741 125.742 32.8252 125.742 32.311C125.742 31.7887 125.673 31.3439 125.534 30.9766C125.396 30.6094 125.183 30.3278 124.898 30.1319C124.62 29.9279 124.257 29.8259 123.808 29.8259C123.139 29.8259 122.653 30.0462 122.351 30.4869C122.049 30.9276 121.898 31.5357 121.898 32.311Z" fill="black"/>
<path d="M118.706 29.0424V35.6042H117.628V29.0424H118.706ZM118.179 26.5817C118.342 26.5817 118.485 26.6389 118.608 26.7531C118.738 26.8592 118.804 27.0306 118.804 27.2673C118.804 27.4958 118.738 27.6672 118.608 27.7815C118.485 27.8957 118.342 27.9529 118.179 27.9529C118 27.9529 117.849 27.8957 117.726 27.7815C117.604 27.6672 117.543 27.4958 117.543 27.2673C117.543 27.0306 117.604 26.8592 117.726 26.7531C117.849 26.6389 118 26.5817 118.179 26.5817Z" fill="black"/>
<path d="M115.029 34.845C115.192 34.845 115.359 34.8328 115.531 34.8083C115.702 34.7756 115.841 34.743 115.947 34.7103V35.5306C115.833 35.5877 115.67 35.6326 115.457 35.6652C115.245 35.706 115.041 35.7264 114.845 35.7264C114.503 35.7264 114.184 35.6693 113.89 35.5551C113.605 35.4326 113.372 35.2245 113.193 34.9307C113.013 34.6369 112.923 34.2247 112.923 33.6942V29.8747H111.993V29.3605L112.936 28.9321L113.364 27.5365H114.001V29.0422H115.898V29.8747H114.001V33.6698C114.001 34.0697 114.094 34.3676 114.282 34.5634C114.478 34.7512 114.727 34.845 115.029 34.845Z" fill="black"/>
<path d="M109.221 35.7266C108.641 35.7266 108.123 35.6082 107.666 35.3715C107.217 35.1349 106.862 34.7676 106.601 34.2698C106.348 33.7719 106.221 33.1353 106.221 32.36C106.221 31.552 106.356 30.895 106.625 30.389C106.895 29.883 107.258 29.5116 107.715 29.275C108.18 29.0383 108.706 28.9199 109.294 28.9199C109.629 28.9199 109.951 28.9567 110.261 29.0301C110.571 29.0954 110.824 29.177 111.02 29.275L110.69 30.1686C110.494 30.0952 110.265 30.0258 110.004 29.9605C109.743 29.8952 109.498 29.8626 109.27 29.8626C108.829 29.8626 108.466 29.9564 108.18 30.1442C107.894 30.3319 107.682 30.6094 107.543 30.9766C107.405 31.3439 107.335 31.8009 107.335 32.3477C107.335 32.8701 107.405 33.3149 107.543 33.6821C107.682 34.0494 107.89 34.3269 108.168 34.5146C108.445 34.7023 108.792 34.7962 109.208 34.7962C109.567 34.7962 109.882 34.7594 110.151 34.686C110.428 34.6125 110.681 34.5228 110.91 34.4167V35.3715C110.69 35.4858 110.445 35.5715 110.175 35.6286C109.914 35.6939 109.596 35.7266 109.221 35.7266Z" fill="black"/>
<path d="M104.138 29.0423V35.6041H103.256L103.097 34.7349H103.048C102.91 34.9634 102.73 35.1511 102.51 35.298C102.289 35.445 102.049 35.5511 101.787 35.6163C101.526 35.6898 101.253 35.7265 100.967 35.7265C100.445 35.7265 100.004 35.6449 99.645 35.4817C99.2941 35.3103 99.0288 35.0491 98.8493 34.6982C98.6697 34.3472 98.58 33.8943 98.58 33.3393V29.0423H99.6695V33.2659C99.6695 33.7882 99.7878 34.1799 100.025 34.4411C100.261 34.7023 100.628 34.8328 101.126 34.8328C101.616 34.8328 102 34.7431 102.277 34.5635C102.563 34.3758 102.763 34.1065 102.877 33.7555C102.999 33.3964 103.061 32.9639 103.061 32.4579V29.0423H104.138Z" fill="black"/>
<path d="M96.2897 28.9199C96.4121 28.9199 96.5427 28.9281 96.6814 28.9444C96.8283 28.9526 96.9548 28.9689 97.0609 28.9934L96.9263 29.985C96.8202 29.9605 96.7018 29.9401 96.5712 29.9238C96.4488 29.9075 96.3305 29.8993 96.2162 29.8993C95.9632 29.8993 95.7224 29.9524 95.4939 30.0585C95.2654 30.1646 95.0614 30.3155 94.8818 30.5114C94.7023 30.6991 94.5594 30.9277 94.4533 31.197C94.3554 31.4663 94.3064 31.7683 94.3064 32.1029V35.6041H93.2291V29.0424H94.1106L94.233 30.2421H94.282C94.4207 29.9972 94.588 29.7769 94.7839 29.581C94.9798 29.377 95.2042 29.2178 95.4572 29.1036C95.7102 28.9811 95.9877 28.9199 96.2897 28.9199Z" fill="black"/>
<path d="M90.6298 34.845C90.793 34.845 90.9604 34.8328 91.1317 34.8083C91.3031 34.7756 91.4419 34.743 91.548 34.7103V35.5306C91.4337 35.5877 91.2705 35.6326 91.0583 35.6652C90.8461 35.706 90.6421 35.7264 90.4462 35.7264C90.1034 35.7264 89.7851 35.6693 89.4913 35.5551C89.2056 35.4326 88.973 35.2245 88.7935 34.9307C88.6139 34.6369 88.5242 34.2247 88.5242 33.6942V29.8747H87.5938V29.3605L88.5364 28.9321L88.9649 27.5365H89.6015V29.0422H91.499V29.8747H89.6015V33.6698C89.6015 34.0697 89.6953 34.3676 89.883 34.5634C90.0789 34.7512 90.3278 34.845 90.6298 34.845Z" fill="black"/>
<path d="M86.4856 33.7923C86.4856 34.2167 86.3795 34.5717 86.1673 34.8574C85.9552 35.143 85.6532 35.3593 85.2614 35.5062C84.8697 35.6531 84.4045 35.7266 83.8658 35.7266C83.4088 35.7266 83.013 35.6898 82.6783 35.6164C82.3519 35.5429 82.0622 35.4409 81.8091 35.3103V34.331C82.0703 34.4615 82.3845 34.584 82.7518 34.6982C83.1272 34.8043 83.5067 34.8574 83.8903 34.8574C84.4371 34.8574 84.833 34.7717 85.0778 34.6003C85.3226 34.4207 85.4451 34.1841 85.4451 33.8902C85.4451 33.727 85.4002 33.5801 85.3104 33.4495C85.2206 33.3189 85.0574 33.1884 84.8207 33.0578C84.5922 32.9272 84.2617 32.7803 83.8291 32.6171C83.4047 32.4538 83.0415 32.2906 82.7395 32.1274C82.4376 31.9642 82.205 31.7683 82.0417 31.5398C81.8785 31.3112 81.7969 31.0174 81.7969 30.6583C81.7969 30.1033 82.0213 29.6749 82.4702 29.3729C82.9273 29.0709 83.523 28.9199 84.2576 28.9199C84.6575 28.9199 85.0288 28.9607 85.3716 29.0424C85.7226 29.1158 86.049 29.2219 86.351 29.3607L85.9837 30.2176C85.8042 30.136 85.6124 30.0666 85.4083 30.0095C85.2125 29.9442 85.0125 29.8952 84.8085 29.8626C84.6044 29.8218 84.3963 29.8014 84.1841 29.8014C83.7434 29.8014 83.4047 29.8748 83.168 30.0217C82.9395 30.1605 82.8252 30.3523 82.8252 30.5971C82.8252 30.7767 82.8783 30.9317 82.9844 31.0623C83.0905 31.1847 83.266 31.3072 83.5108 31.4296C83.7638 31.5438 84.0984 31.6826 84.5147 31.8458C84.9309 32.0009 85.2859 32.16 85.5797 32.3233C85.8735 32.4865 86.098 32.6864 86.253 32.9231C86.4081 33.1516 86.4856 33.4414 86.4856 33.7923Z" fill="black"/>
<path d="M77.4365 28.9199C78.22 28.9199 78.8117 29.1117 79.2116 29.4953C79.6116 29.8707 79.8115 30.4829 79.8115 31.3316V35.6041H78.7464V31.4051C78.7464 30.8746 78.6281 30.4788 78.3914 30.2176C78.1547 29.9564 77.7834 29.8259 77.2774 29.8259C76.551 29.8259 76.0491 30.0299 75.7716 30.438C75.4941 30.846 75.3554 31.4337 75.3554 32.2008V35.6041H74.2781V29.0424H75.1473L75.3064 29.936H75.3676C75.5145 29.7075 75.6941 29.5198 75.9063 29.3729C76.1266 29.2178 76.3674 29.1036 76.6286 29.0301C76.8897 28.9567 77.159 28.9199 77.4365 28.9199Z" fill="black"/>
<path d="M72.2036 32.311C72.2036 32.8578 72.1302 33.3434 71.9833 33.7678C71.8445 34.1841 71.6405 34.5391 71.3712 34.8329C71.11 35.1267 70.7876 35.3511 70.4041 35.5062C70.0286 35.6531 69.6083 35.7266 69.1431 35.7266C68.7106 35.7266 68.3106 35.6531 67.9434 35.5062C67.5761 35.3511 67.2578 35.1267 66.9885 34.8329C66.7192 34.5391 66.507 34.1841 66.3519 33.7678C66.205 33.3434 66.1315 32.8578 66.1315 32.311C66.1315 31.5846 66.254 30.9725 66.4988 30.4747C66.7437 29.9687 67.0946 29.5851 67.5516 29.3239C68.0087 29.0546 68.5514 28.9199 69.1798 28.9199C69.7756 28.9199 70.298 29.0546 70.7468 29.3239C71.2039 29.5851 71.5589 29.9687 71.8119 30.4747C72.0731 30.9725 72.2036 31.5846 72.2036 32.311ZM67.2456 32.311C67.2456 32.8252 67.3109 33.2741 67.4415 33.6576C67.5802 34.0331 67.7924 34.3228 68.078 34.5268C68.3637 34.7309 68.7269 34.8329 69.1676 34.8329C69.6083 34.8329 69.9715 34.7309 70.2571 34.5268C70.5428 34.3228 70.7509 34.0331 70.8815 33.6576C71.0202 33.2741 71.0896 32.8252 71.0896 32.311C71.0896 31.7887 71.0202 31.3439 70.8815 30.9766C70.7428 30.6094 70.5306 30.3278 70.2449 30.1319C69.9674 29.9279 69.6042 29.8259 69.1554 29.8259C68.4861 29.8259 68.0005 30.0462 67.6985 30.4869C67.3966 30.9276 67.2456 31.5357 67.2456 32.311Z" fill="black"/>
<path d="M62.2894 27.7079C61.8242 27.7079 61.4039 27.7895 61.0285 27.9527C60.6531 28.1078 60.3348 28.3404 60.0736 28.6505C59.8124 28.9525 59.6125 29.3239 59.4738 29.7646C59.335 30.1971 59.2656 30.6868 59.2656 31.2336C59.2656 31.9518 59.3758 32.5762 59.5962 33.1067C59.8247 33.6372 60.1593 34.0453 60.6 34.3309C61.0489 34.6166 61.608 34.7594 62.2772 34.7594C62.6608 34.7594 63.024 34.7267 63.3668 34.6614C63.7095 34.5961 64.0442 34.5145 64.3706 34.4166V35.3715C64.0442 35.4939 63.7055 35.5837 63.3545 35.6408C63.0117 35.6979 62.5996 35.7265 62.1181 35.7265C61.2285 35.7265 60.4858 35.5429 59.89 35.1756C59.2942 34.8083 58.8453 34.286 58.5433 33.6086C58.2495 32.9312 58.1026 32.1355 58.1026 31.2214C58.1026 30.5603 58.1924 29.9564 58.372 29.4096C58.5597 28.8627 58.829 28.3894 59.1799 27.9895C59.539 27.5896 59.9798 27.2835 60.5021 27.0713C61.0244 26.851 61.6243 26.7408 62.3017 26.7408C62.7506 26.7408 63.1831 26.7857 63.5994 26.8754C64.0156 26.9652 64.3869 27.0917 64.7134 27.2549L64.2727 28.1853C64.0033 28.0629 63.7014 27.9527 63.3668 27.8548C63.0403 27.7569 62.6812 27.7079 62.2894 27.7079Z" fill="black"/>
<path d="M200.712 15.9294H201.621C202.628 15.9294 203.132 15.4911 203.132 14.6143C203.132 13.7375 202.628 13.2991 201.621 13.2991H200.712V15.9294ZM200.712 21.6378H197.969V11.0886H202.335C203.519 11.0886 204.424 11.3964 205.049 12.012C205.683 12.6276 206 13.495 206 14.6143C206 15.7336 205.683 16.601 205.049 17.2166C204.424 17.8322 203.519 18.14 202.335 18.14H200.712V21.6378Z" fill="black"/>
<path d="M186.595 15.8035H187.112C187.653 15.8035 188.068 15.6916 188.358 15.4677C188.647 15.2439 188.791 14.9221 188.791 14.5024C188.791 14.0826 188.647 13.7608 188.358 13.537C188.068 13.3131 187.653 13.2012 187.112 13.2012H186.595V15.8035ZM192.625 21.6378H189.211L186.595 17.5804V21.6378H183.853V11.0886H188.12C188.707 11.0886 189.22 11.1772 189.659 11.3544C190.097 11.5223 190.456 11.7555 190.736 12.0539C191.025 12.3524 191.24 12.6975 191.38 13.0893C191.529 13.481 191.604 13.9007 191.604 14.3485C191.604 15.1506 191.408 15.8035 191.016 16.3072C190.634 16.8016 190.065 17.1373 189.309 17.3146L192.625 21.6378Z" fill="black"/>
<path d="M169.109 16.3632C169.109 16.7829 169.188 17.17 169.347 17.5244C169.505 17.8789 169.72 18.1867 169.99 18.4479C170.261 18.709 170.573 18.9142 170.928 19.0635C171.291 19.2034 171.674 19.2733 172.075 19.2733C172.476 19.2733 172.854 19.2034 173.208 19.0635C173.572 18.9142 173.889 18.709 174.16 18.4479C174.439 18.1867 174.659 17.8789 174.817 17.5244C174.976 17.17 175.055 16.7829 175.055 16.3632C175.055 15.9435 174.976 15.5564 174.817 15.2019C174.659 14.8475 174.439 14.5397 174.16 14.2785C173.889 14.0174 173.572 13.8168 173.208 13.6769C172.854 13.5277 172.476 13.4531 172.075 13.4531C171.674 13.4531 171.291 13.5277 170.928 13.6769C170.573 13.8168 170.261 14.0174 169.99 14.2785C169.72 14.5397 169.505 14.8475 169.347 15.2019C169.188 15.5564 169.109 15.9435 169.109 16.3632ZM166.241 16.3632C166.241 15.5797 166.385 14.8522 166.674 14.1806C166.964 13.4997 167.365 12.9074 167.878 12.4037C168.391 11.9001 169.002 11.5083 169.71 11.2285C170.429 10.9393 171.217 10.7948 172.075 10.7948C172.924 10.7948 173.707 10.9393 174.425 11.2285C175.144 11.5083 175.759 11.9001 176.272 12.4037C176.795 12.9074 177.2 13.4997 177.489 14.1806C177.779 14.8522 177.923 15.5797 177.923 16.3632C177.923 17.1467 177.779 17.8789 177.489 18.5598C177.2 19.2314 176.795 19.819 176.272 20.3227C175.759 20.8263 175.144 21.2227 174.425 21.5119C173.707 21.7917 172.924 21.9316 172.075 21.9316C171.217 21.9316 170.429 21.7917 169.71 21.5119C169.002 21.2227 168.391 20.8263 167.878 20.3227C167.365 19.819 166.964 19.2314 166.674 18.5598C166.385 17.8789 166.241 17.1467 166.241 16.3632Z" fill="black"/>
<path d="M160.634 14.6143C160 13.8401 159.216 13.4531 158.283 13.4531C157.873 13.4531 157.491 13.5277 157.136 13.6769C156.791 13.8262 156.493 14.0314 156.241 14.2925C155.989 14.5444 155.788 14.8475 155.639 15.2019C155.499 15.5564 155.429 15.9388 155.429 16.3492C155.429 16.7689 155.499 17.156 155.639 17.5105C155.788 17.8649 155.989 18.1727 156.241 18.4339C156.502 18.695 156.805 18.9002 157.15 19.0495C157.495 19.1987 157.868 19.2733 158.269 19.2733C159.146 19.2733 159.934 18.9002 160.634 18.154V21.4L160.354 21.4979C159.934 21.6471 159.543 21.7544 159.179 21.8197C158.815 21.8943 158.456 21.9316 158.102 21.9316C157.374 21.9316 156.674 21.7964 156.003 21.5259C155.341 21.2461 154.753 20.859 154.24 20.3646C153.736 19.8609 153.331 19.2687 153.023 18.5878C152.715 17.8975 152.561 17.1467 152.561 16.3352C152.561 15.5237 152.71 14.7822 153.009 14.1106C153.317 13.4297 153.722 12.8468 154.226 12.3618C154.739 11.8674 155.331 11.485 156.003 11.2145C156.674 10.9347 157.379 10.7948 158.116 10.7948C158.535 10.7948 158.946 10.8414 159.347 10.9347C159.757 11.0186 160.186 11.1539 160.634 11.3404V14.6143Z" fill="black"/>
<path d="M132.323 16.573L128.476 11.0886H131.75L133.708 13.9707L135.653 11.0886H138.927L135.065 16.573V21.6378H132.323V16.573Z" fill="black"/>
<path d="M123.602 13.4111H120.342V15.1739H123.42V17.4964H120.342V19.3153H123.602V21.6378H117.6V11.0886H123.602V13.4111Z" fill="black"/>
<path d="M108.699 11.0886V19.3153H111.986V21.6378H105.956V11.0886H108.699Z" fill="black"/>
<path d="M98.2868 13.4111V21.6378H95.5446V13.4111H93.2921V11.0886H100.539V13.4111H98.2868Z" fill="black"/>
<path d="M79.651 16.3632C79.651 16.7829 79.7302 17.17 79.8888 17.5244C80.0474 17.8789 80.2619 18.1867 80.5324 18.4479C80.8029 18.709 81.1153 18.9142 81.4698 19.0635C81.8335 19.2034 82.216 19.2733 82.617 19.2733C83.0181 19.2733 83.3959 19.2034 83.7503 19.0635C84.1141 18.9142 84.4312 18.709 84.7017 18.4479C84.9815 18.1867 85.2007 17.8789 85.3593 17.5244C85.5178 17.17 85.5971 16.7829 85.5971 16.3632C85.5971 15.9435 85.5178 15.5564 85.3593 15.2019C85.2007 14.8475 84.9815 14.5397 84.7017 14.2785C84.4312 14.0174 84.1141 13.8168 83.7503 13.6769C83.3959 13.5277 83.0181 13.4531 82.617 13.4531C82.216 13.4531 81.8335 13.5277 81.4698 13.6769C81.1153 13.8168 80.8029 14.0174 80.5324 14.2785C80.2619 14.5397 80.0474 14.8475 79.8888 15.2019C79.7302 15.5564 79.651 15.9435 79.651 16.3632ZM76.7828 16.3632C76.7828 15.5797 76.9274 14.8522 77.2165 14.1806C77.5057 13.4997 77.9067 12.9074 78.4197 12.4037C78.9327 11.9001 79.5437 11.5083 80.2526 11.2285C80.9708 10.9393 81.7589 10.7948 82.617 10.7948C83.4658 10.7948 84.2493 10.9393 84.9675 11.2285C85.6857 11.5083 86.3013 11.9001 86.8144 12.4037C87.3367 12.9074 87.7424 13.4997 88.0316 14.1806C88.3207 14.8522 88.4653 15.5797 88.4653 16.3632C88.4653 17.1467 88.3207 17.8789 88.0316 18.5598C87.7424 19.2314 87.3367 19.819 86.8144 20.3227C86.3013 20.8263 85.6857 21.2227 84.9675 21.5119C84.2493 21.7917 83.4658 21.9316 82.617 21.9316C81.7589 21.9316 80.9708 21.7917 80.2526 21.5119C79.5437 21.2227 78.9327 20.8263 78.4197 20.3227C77.9067 19.819 77.5057 19.2314 77.2165 18.5598C76.9274 17.8789 76.7828 17.1467 76.7828 16.3632Z" fill="black"/>
<path d="M58.1025 21.6378L59.8934 11.0886H62.6076L64.7203 16.7129L66.8189 11.0886H69.5332L71.324 21.6378H68.5958L67.6864 15.5657L65.196 21.6378H64.1047L61.7402 15.5657L60.8308 21.6378H58.1025Z" fill="black"/>
<path d="M24.0058 38.3855L18.8403 33.2333V13.7699L23.7433 8.87946L29.0102 14.1298L33.4599 9.69155L23.7433 0L12.5475 11.17V35.8332L24.0058 47.2619L31.2708 40.0126V31.1451L31.2678 31.1391L24.0058 38.3855Z" fill="#4C6DB4" fill-opacity="0.8"/>
<path d="M23.4237 23.6086L0 1.52588e-05V42.4674L6.80111 36.4028V17.6394L23.4237 34.3962L39.86 17.8302V36.5936L46.6581 42.6613V0.19084L23.4237 23.6086Z" fill="#0F256C"/>
</svg>
