<svg width="34" height="34" viewBox="0 0 34 34" fill="none" xmlns="http://www.w3.org/2000/svg">
<g clip-path="url(#clip0_1_3211)">
<path d="M26.5625 10.625H26.4988C26.2284 8.29534 25.1114 6.14631 23.36 4.58648C21.6087 3.02665 19.3452 2.16479 17 2.16479C14.6548 2.16479 12.3913 3.02665 10.64 4.58648C8.88864 6.14631 7.7716 8.29534 7.50125 10.625H7.4375C6.02854 10.625 4.67728 11.1847 3.681 12.181C2.68471 13.1772 2.125 14.5285 2.125 15.9375C2.125 17.3464 2.68471 18.6977 3.681 19.694C4.67728 20.6902 6.02854 21.25 7.4375 21.25H9.5625V11.6875C9.5625 9.71491 10.3461 7.82315 11.7409 6.42835C13.1357 5.03355 15.0275 4.24995 17 4.24995C18.9725 4.24995 20.8643 5.03355 22.2591 6.42835C23.6539 7.82315 24.4375 9.71491 24.4375 11.6875V22.3125C24.4368 23.2859 24.1019 24.2297 23.4888 24.9859C22.8758 25.742 22.0217 26.2648 21.0694 26.4668C20.7857 25.4721 20.1491 24.6149 19.2787 24.056C18.4083 23.4971 17.3639 23.2748 16.3414 23.4308C15.3188 23.5868 14.3882 24.1103 13.7241 24.9033C13.0599 25.6963 12.7077 26.7043 12.7336 27.7384C12.7594 28.7725 13.1615 29.7616 13.8645 30.5204C14.5675 31.2792 15.523 31.7557 16.5521 31.8603C17.5812 31.965 18.6131 31.6908 19.4545 31.0891C20.2959 30.4874 20.8889 29.5995 21.1225 28.5918C22.6302 28.3683 24.0079 27.612 25.0059 26.46C26.0039 25.308 26.5561 23.8366 26.5625 22.3125V21.25C27.9715 21.25 29.3227 20.6902 30.319 19.694C31.3153 18.6977 31.875 17.3464 31.875 15.9375C31.875 14.5285 31.3153 13.1772 30.319 12.181C29.3227 11.1847 27.9715 10.625 26.5625 10.625ZM4.25 15.9375C4.25 15.0921 4.58582 14.2813 5.1836 13.6836C5.78137 13.0858 6.59212 12.75 7.4375 12.75V19.125C6.59212 19.125 5.78137 18.7891 5.1836 18.1914C4.58582 17.5936 4.25 16.7828 4.25 15.9375ZM17 29.75C16.5797 29.75 16.1689 29.6253 15.8194 29.3918C15.47 29.1583 15.1976 28.8265 15.0368 28.4382C14.8759 28.0499 14.8338 27.6226 14.9158 27.2104C14.9978 26.7982 15.2002 26.4195 15.4974 26.1224C15.7946 25.8252 16.1732 25.6228 16.5854 25.5408C16.9976 25.4588 17.4249 25.5009 17.8132 25.6617C18.2015 25.8225 18.5334 26.0949 18.7669 26.4444C19.0004 26.7938 19.125 27.2047 19.125 27.625C19.125 28.1885 18.9011 28.729 18.5026 29.1276C18.1041 29.5261 17.5636 29.75 17 29.75ZM26.5625 19.125V12.75C27.4079 12.75 28.2186 13.0858 28.8164 13.6836C29.4142 14.2813 29.75 15.0921 29.75 15.9375C29.75 16.7828 29.4142 17.5936 28.8164 18.1914C28.2186 18.7891 27.4079 19.125 26.5625 19.125Z" fill="#0F256C"/>
</g>
<defs>
<clipPath id="clip0_1_3211">
<rect width="34" height="34" fill="white"/>
</clipPath>
</defs>
</svg>
