<svg width="36" height="30" viewBox="0 0 36 30" fill="none" xmlns="http://www.w3.org/2000/svg">
<path d="M17.5707 1.34943C18.5602 1.12082 19.5909 1 20.65 1C28.1744 1 34.2742 7.09979 34.2742 14.6242C34.2742 22.1486 28.1744 28.2485 20.65 28.2485C19.5909 28.2485 18.5602 28.1276 17.5707 27.899" stroke="#91AFEF" stroke-width="2" stroke-linejoin="round"/>
<path d="M1 14.6245C1 11.0111 2.43539 7.54578 4.9904 4.99077C7.54542 2.43576 11.0108 1.00037 14.6241 1.00037C18.2374 1.00037 21.7028 2.43576 24.2578 4.99077C26.8128 7.54578 28.2482 11.0111 28.2482 14.6245C28.2482 18.2378 26.8128 21.7031 24.2578 24.2581C21.7028 26.8132 18.2374 28.2485 14.6241 28.2485C11.0108 28.2485 7.54542 26.8132 4.9904 24.2581C2.43539 21.7031 1 18.2378 1 14.6245Z" stroke="#91AFEF" stroke-width="2" stroke-linejoin="round"/>
<path d="M14.6237 7.19238V14.6238L19.578 19.578" stroke="#91AFEF" stroke-width="2" stroke-linecap="round" stroke-linejoin="round"/>
</svg>
