<svg width="33" height="33" viewBox="0 0 33 33" fill="none" xmlns="http://www.w3.org/2000/svg">
<path d="M10.5386 32V17.6923C10.5386 19.6677 8.93714 21.2692 6.96166 21.2692H5.76935" stroke="#91AFEF" stroke-width="2" stroke-linecap="round" stroke-linejoin="round"/>
<path d="M15.3078 32H5.76935" stroke="#91AFEF" stroke-width="2" stroke-linecap="round" stroke-linejoin="round"/>
<path d="M17.6925 21.2692V28.423C17.6925 30.3984 19.2939 32 21.2694 32H23.654C25.6295 32 27.231 30.3984 27.231 28.423V21.2692C27.231 19.2937 25.6295 17.6923 23.654 17.6923H21.2694C19.2939 17.6923 17.6925 19.2937 17.6925 21.2692Z" stroke="#91AFEF" stroke-width="2" stroke-linecap="round" stroke-linejoin="round"/>
<path d="M32.0001 6.05627L29.7865 12.7496L23.0933 10.536" stroke="#91AFEF" stroke-width="2" stroke-linecap="round" stroke-linejoin="round"/>
<path d="M29.7868 12.7497C28.4259 6.04577 22.499 1 15.3935 1C8.28799 1 2.36101 6.04577 1.00018 12.7497" stroke="#91AFEF" stroke-width="2" stroke-linecap="round" stroke-linejoin="round"/>
</svg>
