<svg width="33" height="35" viewBox="0 0 33 35" fill="none" xmlns="http://www.w3.org/2000/svg">
<path d="M27.2308 13.4199V9.69391L18.8846 1H3.38462C2.75217 1 2.14564 1.2617 1.69844 1.72754C1.25124 2.19338 1 2.82517 1 3.48397V30.8077C1 31.4664 1.25124 32.0984 1.69844 32.5641C2.14564 33.0299 2.75217 33.2917 3.38462 33.2917H15.3077" stroke="#0F256C" stroke-width="2" stroke-linecap="round" stroke-linejoin="round"/>
<path d="M30.8077 18.3878H18.8846C18.2261 18.3878 17.6923 18.9439 17.6923 19.6298V22.9527C17.6923 27.6436 20.574 31.8082 24.8462 33.2917C29.1184 31.8082 32 27.6436 32 22.9527V19.6298C32 18.9439 31.4661 18.3878 30.8077 18.3878Z" stroke="#0F256C" stroke-width="2" stroke-linecap="round" stroke-linejoin="round"/>
<path d="M21.8654 25.2187L23.6538 27.0817L27.8269 22.7347" stroke="#0F256C" stroke-width="2" stroke-linecap="round" stroke-linejoin="round"/>
<path d="M6.96155 9.69397H18.8846" stroke="#0F256C" stroke-width="2" stroke-linecap="round" stroke-linejoin="round"/>
<path d="M6.96155 17.1459H12.9231" stroke="#0F256C" stroke-width="2" stroke-linecap="round" stroke-linejoin="round"/>
<path d="M6.96155 24.5977H12.9231" stroke="#0F256C" stroke-width="2" stroke-linecap="round" stroke-linejoin="round"/>
</svg>
