<svg width="40" height="41" viewBox="0 0 40 41" fill="none" xmlns="http://www.w3.org/2000/svg">
<path d="M32.2453 30.2134L23.1852 38.3837C21.2696 40.1388 18.7188 40.2541 16.6972 38.677L1.00012 26.4313" stroke="#91AFEF" stroke-width="2" stroke-linecap="round" stroke-linejoin="round"/>
<path d="M38.648 24.4538L32.2452 30.1858L22.2421 17.8409L18.766 21.1046C17.1915 22.583 14.9269 22.1957 13.7475 20.2462C12.6614 18.451 12.8761 15.9436 14.2429 14.46L18.7445 9.57387C20.2313 7.96005 22.1282 7.01741 24.1174 6.90374L30.7227 6.52637L38.648 1.00012" stroke="#91AFEF" stroke-width="2" stroke-linecap="round" stroke-linejoin="round"/>
<path d="M22.2437 17.8605C24.6442 20.6182 28.0485 19.2113 29.3143 16.9602" stroke="#91AFEF" stroke-width="2" stroke-linecap="round" stroke-linejoin="round"/>
<path d="M1.00012 2.7113L7.42718 7.17348L13.1577 5.89353C15.0993 5.45985 17.0846 6.1739 18.5679 7.83934L19.3829 8.89931" stroke="#91AFEF" stroke-width="2" stroke-linecap="round" stroke-linejoin="round"/>
</svg>
