<svg width="36" height="44" viewBox="0 0 36 44" fill="none" xmlns="http://www.w3.org/2000/svg">
<g clip-path="url(#clip0_1_4836)">
<path d="M7.34457 34.3782H1.16504V18.1049C1.16504 17.8197 1.21122 17.5374 1.30094 17.274C1.39065 17.0106 1.52215 16.7713 1.6879 16.5698C1.85365 16.3684 2.0504 16.2087 2.26689 16.0999C2.48338 15.9911 2.71537 15.9353 2.94958 15.9358H6.45377L5.1751 20.2757L7.34457 23.5221L5.56298 26.7847L8.23536 30.0383L7.34457 34.3782Z" stroke="#0F256C" stroke-width="1.5" stroke-linecap="round" stroke-linejoin="round"/>
<path d="M1.16504 34.3782V39.8026C1.16504 40.0878 1.21122 40.3701 1.30094 40.6335C1.39065 40.8969 1.52215 41.1362 1.6879 41.3376C1.85365 41.5391 2.0504 41.6988 2.26689 41.8076C2.48338 41.9164 2.71537 41.9722 2.94958 41.9717H7.34457C7.57865 41.9719 7.81048 41.916 8.02681 41.8071C8.24313 41.6982 8.43971 41.5385 8.6053 41.337C8.77089 41.1356 8.90225 40.8964 8.99188 40.6331C9.0815 40.3698 9.12764 40.0876 9.12764 39.8026V34.3782H7.34457" stroke="#0F256C" stroke-width="1.5" stroke-linecap="round" stroke-linejoin="round"/>
<path d="M13.7012 32.0099C14.4182 31.5242 15.1682 31.1145 15.9429 30.7853L15.9577 30.8032C16.581 31.5631 17.3213 32.1659 18.1362 32.5772C18.951 32.9885 19.8245 33.2002 20.7066 33.2002C21.5887 33.2002 22.4622 32.9885 23.277 32.5772C24.0919 32.1659 24.8322 31.5631 25.4556 30.8032C27.4728 31.6697 29.3066 33.0713 30.8243 34.9066C32.342 36.7419 33.5055 38.965 34.2308 41.4151" stroke="#0F256C" stroke-width="1.5" stroke-linecap="round" stroke-linejoin="round"/>
<path d="M28.411 15.9358C28.411 18.4359 27.5952 20.8337 26.1432 22.6015C24.6911 24.3694 22.7217 25.3626 20.6681 25.3626C18.6146 25.3626 16.6452 24.3694 15.1931 22.6015C13.7411 20.8337 12.9253 18.4359 12.9253 15.9358" stroke="#0F256C" stroke-width="1.5" stroke-linecap="round" stroke-linejoin="round"/>
<path d="M31.2472 12.8815C31.2472 13.691 30.9831 14.4674 30.5129 15.0399C30.0427 15.6124 29.405 15.934 28.74 15.934H12.6732C12.0083 15.934 11.3706 15.6124 10.9004 15.0399C10.4302 14.4674 10.166 13.691 10.166 12.8815C10.166 12.0719 10.4302 11.2955 10.9004 10.723C11.3706 10.1506 12.0083 9.82898 12.6732 9.82898H28.74C29.405 9.82898 30.0427 10.1506 30.5129 10.723C30.9831 11.2955 31.2472 12.0719 31.2472 12.8815Z" stroke="#0F256C" stroke-width="1.5" stroke-linecap="round" stroke-linejoin="round"/>
<path d="M17.49 10.5491V15.9358" stroke="#0F256C" stroke-width="1.5" stroke-linecap="round" stroke-linejoin="round"/>
<path d="M23.9231 10.5491V15.9358" stroke="#0F256C" stroke-width="1.5" stroke-linecap="round" stroke-linejoin="round"/>
<path d="M13.7012 32.0098V41.5227" stroke="#0F256C" stroke-width="1.5" stroke-linecap="round" stroke-linejoin="round"/>
<path d="M27.7119 32.0458V41.5228" stroke="#0F256C" stroke-width="1.5" stroke-linecap="round" stroke-linejoin="round"/>
<path d="M13.7012 38.8295H27.712" stroke="#0F256C" stroke-width="1.5" stroke-linecap="round" stroke-linejoin="round"/>
<path d="M28.3904 9.82726C28.2505 7.46276 27.3803 5.25048 25.9548 3.63554C24.5294 2.02059 22.6544 1.1228 20.7073 1.1228C18.7601 1.1228 16.8852 2.02059 15.4598 3.63554C14.0343 5.25048 13.1641 7.46276 13.0242 9.82726H28.3904Z" stroke="#0F256C" stroke-width="1.5" stroke-linecap="round" stroke-linejoin="round"/>
</g>
<defs>
<clipPath id="clip0_1_4836">
<rect width="35.3959" height="43.0939" fill="white"/>
</clipPath>
</defs>
</svg>
