<svg width="34" height="45" viewBox="0 0 34 45" fill="none" xmlns="http://www.w3.org/2000/svg">
<path d="M1 19.968L16.5797 13.6453L32.1594 19.968" stroke="#91AFEF" stroke-width="2"/>
<path d="M16.5798 1V42.0975" stroke="#91AFEF" stroke-width="2"/>
<path d="M1.33382 26.2907C2.81808 35.3499 8.92213 40.0171 12.942 42.155C14.1908 42.8191 14.8152 43.1512 16.5797 43.1512C18.3442 43.1512 18.9686 42.8191 20.2174 42.155C21.2183 41.6226 22.3484 40.9337 23.504 40.059M28.6973 34.5189C30.7109 31.4087 32.1594 27.3367 32.1594 22.0575V18.7387C32.1594 11.9995 32.1594 8.62997 31.5059 7.49637C30.8525 6.36278 28.2501 5.27827 23.0455 3.10923L22.0539 2.696C19.3408 1.56533 17.9843 1 16.5797 1C15.1751 1 13.8186 1.56533 11.1056 2.696L10.114 3.10923C4.90933 5.27827 2.30702 6.36278 1.65352 7.49637C1 8.62997 1 11.9995 1 18.7387V19.9681" stroke="#91AFEF" stroke-width="2" stroke-linecap="round"/>
</svg>
