<svg width="29" height="32" viewBox="0 0 29 32" fill="none" xmlns="http://www.w3.org/2000/svg">
<path d="M1 14.2047L14.2047 9.8031L27.4094 14.2047" stroke="#91AFEF" stroke-width="2"/>
<path d="M14.2047 1V29.6102" stroke="#91AFEF" stroke-width="2"/>
<path d="M1.28293 18.6063C2.54093 24.9128 7.71445 28.1619 11.1215 29.6502C12.18 30.1125 12.7092 30.3438 14.2047 30.3438C15.7002 30.3438 16.2294 30.1125 17.2878 29.6502C18.1362 29.2796 19.0939 28.8 20.0734 28.1911M24.475 24.3343C26.1816 22.1692 27.4094 19.3344 27.4094 15.6593V13.3489C27.4094 8.65735 27.4094 6.31163 26.8555 5.52247C26.3016 4.73332 24.096 3.97833 19.6848 2.46835L18.8444 2.18068C16.5449 1.39356 15.3952 1 14.2047 1C13.0142 1 11.8645 1.39356 9.56503 2.18068L8.72461 2.46835C4.31338 3.97833 2.10777 4.73332 1.55389 5.52247C1 6.31163 1 8.65735 1 13.3489V14.2047" stroke="#91AFEF" stroke-width="2" stroke-linecap="round"/>
</svg>
